<svg xmlns="http://www.w3.org/2000/svg" viewBox="0 0 32 32" fill="none">
  <defs>
    <linearGradient id="cloudGradient" x1="0%" y1="0%" x2="100%" y2="100%">
      <stop offset="0%" style="stop-color:#60a5fa;stop-opacity:1" />
      <stop offset="50%" style="stop-color:#3b82f6;stop-opacity:1" />
      <stop offset="100%" style="stop-color:#1d4ed8;stop-opacity:1" />
    </linearGradient>
  </defs>
  
  <!-- Main cloud shape -->
  <path d="M8 20c-2.2 0-4-1.8-4-4 0-2.1 1.6-3.8 3.7-4 1.1-2.3 3.4-3.9 6.1-3.9 2.7 0 5 1.6 6.1 3.9 2.1 0.2 3.7 1.9 3.7 4 0 2.2-1.8 4-4 4H8z" 
        fill="url(#cloudGradient)" 
        stroke="#1e40af" 
        stroke-width="0.5"/>
  
  <!-- Small cloud accent -->
  <path d="M24 16c-1.1 0-2-0.9-2-2s0.9-2 2-2c0.6 0 1.1 0.3 1.4 0.7 0.6-0.4 1.3-0.7 2.1-0.7 1.7 0 3 1.3 3 3s-1.3 3-3 3H24z" 
        fill="#93c5fd" 
        stroke="#3b82f6" 
        stroke-width="0.3"/>
</svg>
